<?xml version="1.0" encoding="UTF-8"?>
<svg width="32px" height="32px" viewBox="0 0 32 32" version="1.1" xmlns="http://www.w3.org/2000/svg" xmlns:xlink="http://www.w3.org/1999/xlink">
    <title>TanStack</title>
    <g id="Page-1" stroke="none" stroke-width="1" fill="none" fill-rule="evenodd">
        <g id="TanStack" fill="#000000" fill-rule="nonzero">
            <path d="M14.7700511,0.0302279387 C15.1920654,-0.0251811746 15.6378564,0.0125370772 16.063166,0.0125370772 C17.6388056,0.0125370772 19.1857881,0.257163306 20.6933515,0.720797393 C22.6172978,1.31252333 24.4093048,2.25856719 25.9909511,3.50318605 C27.9295388,5.02868908 29.5358378,7.02959228 30.5665337,9.27520516 C32.4949435,13.4765761 32.4808026,18.5682898 30.5051317,22.7519699 C29.227701,25.4570445 27.1783225,27.7210993 24.6978362,29.372149 C22.6739446,30.7192831 20.306877,31.5438692 17.8985548,31.8358101 C14.83308,32.2074851 11.5190769,31.6643673 8.76332404,30.2514349 C3.58998858,27.5988905 0.0729247142,22.260381 0.00334679182,16.409963 C-0.010043204,15.2820037 0.00751813002,14.1473268 0.230809868,13.0303409 C0.594508854,11.2112279 1.2286357,9.45278134 2.18099394,7.85659834 C3.21118935,6.12986177 4.54188797,4.60611114 6.13538089,3.37759763 C8.00405705,1.93691895 10.175906,0.900668395 12.4758151,0.373489066 C13.0312432,0.24619157 13.5889435,0.175644951 14.1494205,0.107416462 L14.3265062,0.085884192 C14.4741555,0.0678990355 14.6220007,0.0496776157 14.7700511,0.0302279387 L14.7700511,0.0302279387 Z M9.41823504,26.6277222 C8.70582278,26.7041038 7.95441961,26.8337646 7.34297671,27.2338987 C7.48062219,27.2669934 7.63838173,27.2341385 7.78197363,27.2338987 C8.12686559,27.2333391 8.47507003,27.2203491 8.8196028,27.2354575 C9.6821121,27.2733086 10.5807787,27.4112831 11.4136757,27.6396685 C12.4800791,27.9320849 13.419373,28.5075649 14.4467456,28.8956282 C15.5305891,29.3049952 16.609484,29.4322179 17.7591771,29.4322179 C18.3385334,29.4322179 18.9134997,29.4304992 19.4752561,29.2723402 C19.182086,29.1162195 18.7624049,29.1455171 18.437627,29.0804868 C17.732957,28.9393547 17.0401401,28.7670465 16.3623686,28.5252314 C15.8635218,28.3472501 15.3830308,28.1275919 14.9047492,27.9032502 L14.5974279,27.7587493 C14.1535,27.5501454 13.7084937,27.3443382 13.2494812,27.1709469 C12.0425588,26.7150154 10.7051346,26.4897477 9.41823504,26.6277222 L9.41823504,26.6277222 Z M10.495773,23.5966797 C9.0839987,23.5966797 7.65614117,23.8453695 6.38516516,24.4859198 C6.07722874,24.6411211 5.78453753,24.8260197 5.50717126,25.030943 C5.4226444,25.0934153 5.27278678,25.1736739 5.24153818,25.2822709 C5.20985058,25.3924267 5.32315169,25.4847161 5.38744482,25.5551822 C5.70511895,25.3858717 6.00694934,25.2066487 6.34525633,25.078107 C8.53325709,24.2469425 11.1857165,24.4211693 13.3692076,25.1832666 C14.4581196,25.563336 15.4613873,26.1317014 16.5220039,26.5774406 C17.7081737,27.0759395 18.9196855,27.3991724 20.1936148,27.5649256 C21.6963013,27.7603761 23.4095468,27.6019773 24.7831284,26.9238957 C25.2657856,26.6856379 25.9359344,26.3225555 26.140028,25.7949988 C25.887964,25.817022 25.6611622,25.9250194 25.4216694,25.9994825 C25.0408595,26.117872 24.6555,26.2182752 24.2643138,26.2966553 C22.9385031,26.5622522 21.5286444,26.6170903 20.1936148,26.3760346 C18.9353904,26.1488473 17.7662993,25.6925466 16.6027141,25.2125413 L16.4541948,25.151151 C16.3551933,25.1101595 16.2562059,25.0690595 16.157181,25.0279778 L16.0086092,24.9663848 C15.4141579,24.7201939 14.8174308,24.4769388 14.2072927,24.2639694 C13.0220009,23.8502458 11.7517034,23.5966797 10.495773,23.5966797 L10.495773,23.5966797 Z M12.9701195,1.91022069 C11.2777862,2.28405487 9.76177011,3.01201828 8.30078822,3.92971662 C7.4526062,4.46246929 6.64126002,5.00825199 5.9062594,5.69392773 C4.81323679,6.71366806 3.9778655,7.95308045 3.24929019,9.24765065 C2.4986054,10.5814708 2.01730511,12.1359623 1.78467663,13.644289 C1.55647803,15.1240377 1.51888393,16.6798481 1.78028666,18.1608358 C2.10706003,20.0123801 2.72903889,21.7498517 3.71127462,23.356863 C4.04136042,23.2027009 4.27570498,22.8512096 4.54935972,22.6144307 C5.10193716,22.1363562 5.68209158,21.693255 6.30534755,21.3108673 C6.53606036,21.1693355 6.77307884,21.0594196 7.02370618,20.9586966 C7.11825016,20.9206857 7.27281698,20.8859522 7.3173153,20.7821116 C7.38803376,20.6171977 7.25725257,20.3301772 7.23478388,20.1593078 C7.17065044,19.6706014 7.1319389,19.1735815 7.14403123,18.6804385 C7.17915103,17.2442166 7.44753776,15.78797 7.95853025,14.4436779 C8.3436104,13.4307723 8.93186628,12.5111154 9.62875401,11.6857865 C9.86521376,11.4057206 10.1165994,11.1450399 10.3760465,10.8864377 C10.5293762,10.7335945 10.7196614,10.6028145 10.8150435,10.4067644 C10.3146668,10.4070842 9.81421029,10.5513738 9.33841738,10.6978618 C8.31339939,11.0134605 7.3148809,11.4817425 6.46498277,12.1424373 C6.07730856,12.4438469 5.79339726,12.8389048 5.42675499,13.1561023 C5.31429196,13.2534279 5.11283226,13.3838482 4.95742734,13.3104243 C4.72264379,13.1995491 4.75888099,12.7375024 4.73198245,12.5251447 C4.6285388,11.7083292 4.93795183,10.6751592 5.33117337,9.96710054 C5.96241109,8.83048957 7.12958427,7.85995163 8.50033231,7.89384574 C9.09229975,7.90847457 9.6105556,8.11415726 10.1765025,8.24841465 C10.0329904,8.04453051 9.84058998,7.89592414 9.65768791,7.72881193 C9.20955185,7.31932502 8.71939176,6.94533094 8.18106178,6.66242725 C7.96447667,6.54863426 7.73128947,6.47948714 7.50261193,6.39587103 C7.38763463,6.35386317 7.2428455,6.29602741 7.1995843,6.16824511 C7.11948733,5.93158602 7.54563365,5.71239364 7.70215602,5.61258991 C8.30725348,5.22680489 9.0491982,4.90944755 9.77741435,4.89158122 C10.9154541,4.86364254 12.0273935,5.49511973 12.4961624,6.56969814 C12.6609668,6.94743602 12.7097044,7.34689115 12.7420332,7.75003208 L12.7479268,7.82565981 L12.7563656,7.93920558 C12.7572916,7.951826 12.7582169,7.96444724 12.7591444,7.97706877 L12.7647602,8.05279719 L12.7705754,8.12850629 C13.1279987,7.83712908 13.3793844,7.40833695 13.7283869,7.09625553 C14.544602,6.36633362 15.6616497,6.04230136 16.721548,6.37089014 C17.6793994,6.66778314 18.5118973,7.32879774 19.0018578,8.20844521 C19.1300449,8.43858923 19.4876678,9.00107914 19.2292981,9.23030389 C19.0270801,9.40976669 18.7706261,9.2699136 18.5573534,9.19549051 C18.3958611,9.13915492 18.2290032,9.10341124 18.0615644,9.07032139 L17.9702054,9.05242781 C17.9397523,9.04647911 17.9093088,9.04051033 17.8789036,9.03441369 C17.2989487,8.91814259 16.6243301,8.93021333 16.0430981,9.03241521 C15.6673168,9.09848468 15.3000758,9.23222245 14.9256513,9.28762008 L14.9256513,9.36755895 C15.949472,9.37603248 16.9398492,9.96010589 17.444975,10.8464282 C17.6542568,11.2136275 17.758778,11.6339061 17.8389548,12.0455115 C17.9380884,12.5542425 17.8684075,13.1084987 17.7294052,13.6043196 C17.6827917,13.7705525 17.598185,14.0523771 17.3993992,14.0906677 C17.2588802,14.1177271 17.1395529,13.977834 17.0593362,13.8835062 C16.8490566,13.6362552 16.6490337,13.4011949 16.4022775,13.1876781 C15.7780238,12.6475711 15.1179719,12.149352 14.4467456,11.6689593 C14.0903599,11.4138744 13.7000117,11.0822479 13.28939,10.9263671 C13.4048462,11.2044745 13.5179478,11.4630368 13.557218,11.7657254 C13.6727141,12.6560846 13.2999658,13.4941239 12.7404842,14.1638918 C12.5697542,14.3682955 12.3871315,14.5741781 12.1719432,14.7329767 C12.0827071,14.7988463 11.9707229,14.8848605 11.8526727,14.8662348 C11.4825583,14.8077595 11.438499,14.249866 11.3817487,13.9640446 C11.1895478,12.9959448 11.2667314,12.0344399 11.5334021,11.0862449 C11.2961442,11.2065529 11.1246561,11.4698316 10.9756765,11.6857865 C10.6479054,12.1609831 10.3635152,12.6635989 10.1595811,13.2046252 C9.34739687,15.3597374 9.35521901,17.8839675 10.407375,19.9587012 C10.5248665,20.190404 10.7031791,20.1593078 10.93477,20.1593078 C10.9696652,20.1593078 11.0046022,20.1590892 11.0395666,20.158779 L11.1445269,20.1577003 C11.3545533,20.1555007 11.5650399,20.1545714 11.772855,20.1823302 C11.8806887,20.1967192 12.0304265,20.183889 12.1157915,20.2633483 C12.217998,20.3585554 12.1635224,20.5217906 12.1399762,20.6389411 C12.0742065,20.9664507 12.0522167,21.2641031 12.0522167,21.5982076 C12.4890586,21.5304994 12.6101419,20.8301549 12.7649882,20.4790633 C12.9404672,20.0813274 13.1190192,19.6831918 13.2813683,19.2799801 C13.3611859,19.0818116 13.467942,18.8602211 13.439926,18.6404691 C13.4084779,18.3934979 13.2300456,18.1316581 13.1056897,17.9210191 C12.8703075,17.5224039 12.6027588,17.1121976 12.4294747,16.6819665 C12.2909513,16.3380295 12.4199366,15.9082381 12.8105241,15.785372 C13.0259519,15.7175838 13.2557868,15.8505222 13.3959864,16.0062432 C13.6899547,16.3326736 13.8797211,16.8184222 14.0931535,17.2015692 L15.7581492,20.1992772 C15.8995461,20.4531231 16.0412623,20.7066893 16.1859318,20.9586966 C16.2423628,21.0570214 16.2997916,21.2088253 16.4154074,21.2507533 C16.5183722,21.2880848 16.6590508,21.2350053 16.7614568,21.214501 C17.0273293,21.1612617 17.2928027,21.1037857 17.5596331,21.0555825 C17.8793825,20.9978267 18.3667888,21.0086584 18.5972622,20.7588494 C18.2601924,20.652091 17.8705626,20.6584062 17.5197242,20.6824678 C17.3090057,20.6969367 17.0754194,20.7723191 16.8817818,20.6492532 C16.5936003,20.4661132 16.402038,20.0430767 16.2257209,19.7596134 C15.7909942,19.0606278 15.38141,18.3511303 14.9651212,17.6412331 L14.8984988,17.5281991 L14.7646043,17.3023621 C14.697772,17.1893585 14.6314435,17.0760652 14.5671106,16.9617526 C14.5173842,16.8733402 14.4436726,16.7568293 14.5149098,16.6593438 C14.5897389,16.5569857 14.7528228,16.5509506 14.9000688,16.5507584 L14.929276,16.550771 C14.9871445,16.5508449 15.0413688,16.5508885 15.0852866,16.5451112 C15.679449,16.4669309 16.2818725,16.4021804 16.8811832,16.4021804 C16.8345298,16.2399045 16.7011146,16.0564847 16.7437772,15.8827376 C16.8392391,15.4939948 17.3985611,15.3723678 17.6586867,15.6513145 C17.8333277,15.8385714 17.9348158,16.0962943 18.0484362,16.3222415 C18.1983736,16.6205335 18.3691035,16.908873 18.5296567,17.2015692 C18.8106946,17.7140174 19.1176332,18.2123963 19.4066529,18.7204079 C19.4304877,18.7623082 19.455046,18.8039938 19.4798592,18.8456448 L19.5172116,18.9081182 C19.6419664,19.1164271 19.7672352,19.3261294 19.8344355,19.5597662 C18.830649,19.5138413 18.0771307,18.3486522 17.6394507,17.5612942 C17.6045305,17.6873578 17.6612808,17.7998718 17.7066571,17.9210191 C17.8009617,18.1726268 17.9136641,18.4122436 18.0555001,18.6404691 C18.2580772,18.9663799 18.4903066,19.3020033 18.7968063,19.5386223 C19.3407235,19.9585013 20.0579647,19.9608196 20.7124293,19.9159339 C21.1321105,19.8871159 21.6565123,19.696062 22.069329,19.8256829 C22.4814674,19.9551039 22.6473683,20.4096364 22.4026075,20.7588094 C22.2192664,21.0203694 21.9745456,21.1191339 21.6702409,21.1585438 C21.8854292,21.6201508 22.1673451,22.0485433 22.3716782,22.5175048 C22.4568037,22.7128754 22.545521,23.0122865 22.749495,23.1153676 C22.8853047,23.1839552 23.0798601,23.1200841 23.2266846,23.1170463 C23.0793413,22.7271844 22.8034517,22.3963574 22.6679612,21.997902 C23.0810574,22.0168076 23.4805845,22.2323628 23.8652257,22.3699376 C24.6218649,22.6405467 25.3689717,22.9364039 26.1150154,23.2349509 L26.4592986,23.3728508 C26.7661574,23.4957568 27.0748521,23.6174238 27.3772013,23.7510416 C27.4878285,23.7999242 27.6409985,23.9141969 27.7632791,23.8438507 C27.8630512,23.7864146 27.9275837,23.6494793 27.9891232,23.5567102 C28.1612498,23.2971487 28.3171337,23.0276747 28.4715409,22.7573214 C29.0899279,21.6746292 29.5434916,20.4882963 29.8464793,19.2799801 C30.8458758,15.294867 29.9885148,10.897789 27.5869221,7.56893414 C26.6641904,6.28995203 25.5037618,5.18423743 24.224405,4.26853757 C21.0227204,1.97704959 16.8222379,1.05935125 12.9701195,1.91022069 Z M19.515165,21.7832262 C18.6664242,22.004497 17.7917427,22.2050637 16.9210921,22.3176576 C17.0355904,22.7074795 17.3153911,23.0866696 17.5202032,23.4368019 C17.5993823,23.5721784 17.6841087,23.7534798 17.8405911,23.8122348 C18.0173472,23.8785841 18.2309392,23.7709064 18.3977181,23.716588 C18.3204946,23.5053095 18.1905515,23.3151749 18.0841945,23.1170463 C18.0403746,23.0353488 17.9725696,22.9386228 18.0086871,22.8416169 C18.076971,22.6583171 18.3604433,22.6691088 18.5174446,22.6372532 C18.9311793,22.5533174 19.3406038,22.4485575 19.7546178,22.3656209 C19.9071493,22.3350443 20.119544,22.2522276 20.2728338,22.3033885 C20.3876115,22.3416906 20.4567922,22.4362567 20.5222478,22.5348742 L20.5515927,22.5793494 C20.5907608,22.6385443 20.6308489,22.6963783 20.6809014,22.7415734 C20.848279,22.8926979 21.0985871,22.9159201 21.3110616,22.9571686 C21.1813979,22.6653917 20.9658902,22.4101069 20.8277259,22.1178103 C20.7473895,21.9478203 20.6813803,21.6977316 20.5055022,21.5994867 C20.2632158,21.4641501 19.7628391,21.7186356 19.515165,21.7832262 L19.515165,21.7832262 Z M14.1673839,19.8395523 C14.1274352,20.3462849 13.9719903,20.7585696 13.7283869,21.1985132 C14.0075491,21.2338462 14.2922985,21.2464366 14.566472,21.3143847 C14.7719625,21.3653057 14.9613298,21.4624314 15.1651042,21.5182688 C15.0561532,21.2201767 14.854015,20.95422 14.6974128,20.6789105 C14.5392941,20.401003 14.3977774,20.0633012 14.1673839,19.8395523 Z" id="Shape"></path>
        </g>
    </g>
</svg>